<svg width="155" height="155" viewBox="0 0 155 155" fill="none" xmlns="http://www.w3.org/2000/svg">
<path fill-rule="evenodd" clip-rule="evenodd" d="M2.92893 70.1041C-0.97631 74.0093 -0.976312 80.341 2.92893 84.2462L70.1041 151.421C74.0093 155.327 80.341 155.327 84.2462 151.421L151.421 84.2462C155.327 80.341 155.327 74.0093 151.421 70.1041L84.2462 2.92893C80.341 -0.97631 74.0093 -0.976312 70.1041 2.92893L2.92893 70.1041ZM78.4372 13.8579V76.4372V138.858C78.4372 139.654 79.4003 140.053 79.9635 139.49L139.481 79.9727C141.434 78.0201 141.434 74.8543 139.481 72.9016L79.8514 13.2721C79.3295 12.7502 78.4372 13.1198 78.4372 13.8579Z" fill="#FCFCFC"/>
</svg>
